<?xml version="1.0" encoding="UTF-8"?>
<svg xmlns="http://www.w3.org/2000/svg" xmlns:xlink="http://www.w3.org/1999/xlink" width="130px" height="55px" viewBox="0 0 55 55" version="1.1">
<g id="surface1">
<path style=" stroke:none;fill-rule:nonzero;fill:rgb(97.647059%,48.627451%,29.411765%);fill-opacity:1;" d="M 43.542969 27.5 C 43.542969 28.765625 42.515625 29.792969 41.25 29.792969 L 19.28125 29.792969 L 22.246094 32.753906 C 23.113281 33.652344 23.101562 35.082031 22.21875 35.96875 C 21.332031 36.851562 19.902344 36.863281 19.003906 35.996094 L 12.128906 29.121094 C 11.234375 28.226562 11.234375 26.773438 12.128906 25.878906 L 19.003906 19.003906 C 19.902344 18.136719 21.332031 18.148438 22.21875 19.03125 C 23.101562 19.917969 23.113281 21.347656 22.246094 22.246094 L 19.28125 25.207031 L 41.25 25.207031 C 42.515625 25.207031 43.542969 26.234375 43.542969 27.5 Z M 43.542969 27.5 "/>
</g>
</svg>
