<?xml version="1.0" encoding="UTF-8"?>
<svg xmlns="http://www.w3.org/2000/svg" xmlns:xlink="http://www.w3.org/1999/xlink" width="130px" height="55px" viewBox="0 0 55 55" version="1.1">
<g id="surface1">
<path style=" stroke:none;fill-rule:nonzero;fill:rgb(97.647059%,48.627451%,29.411765%);fill-opacity:1;" d="M 42.871094 29.121094 L 35.996094 35.996094 C 35.097656 36.863281 33.667969 36.851562 32.78125 35.96875 C 31.898438 35.082031 31.886719 33.652344 32.753906 32.753906 L 35.71875 29.792969 L 13.75 29.792969 C 12.484375 29.792969 11.457031 28.765625 11.457031 27.5 C 11.457031 26.234375 12.484375 25.207031 13.75 25.207031 L 35.71875 25.207031 L 32.753906 22.246094 C 31.886719 21.347656 31.898438 19.917969 32.78125 19.03125 C 33.667969 18.148438 35.097656 18.136719 35.996094 19.003906 L 42.871094 25.878906 C 43.765625 26.773438 43.765625 28.226562 42.871094 29.121094 Z M 42.871094 29.121094 "/>
</g>
</svg>
